<?xml version="1.0" encoding="utf-8"?>
<!-- Generator: Adobe Illustrator 24.3.0, SVG Export Plug-In . SVG Version: 6.00 Build 0)  -->
<svg version="1.1" id="Layer_1" xmlns="http://www.w3.org/2000/svg" xmlns:xlink="http://www.w3.org/1999/xlink" x="0px" y="0px"
	 width="44px" height="44px" viewBox="0 0 44 44" style="enable-background:new 0 0 44 44;" xml:space="preserve">
<style type="text/css">
	.st0{fill-rule:evenodd;clip-rule:evenodd;fill:#7A8CA9;}
	.st1{fill:#7A8CA9;}
</style>
<path id="Rectangle-Copy-3" class="st0" d="M32,22L32,22c0,0.6-0.4,1-1,1H13c-0.6,0-1-0.4-1-1l0,0c0-0.6,0.4-1,1-1h18
	C31.6,21,32,21.4,32,22z"/>
<path id="Path" class="st1" d="M32.6,21.3c0.4,0.4,0.4,0.9,0.1,1.3l-0.1,0.1l-6.4,6.4c-0.4,0.4-1,0.4-1.4,0
	c-0.4-0.4-0.4-0.9-0.1-1.3l0.1-0.1l5.7-5.7l-5.7-5.7c-0.4-0.4-0.4-0.9-0.1-1.3l0.1-0.1c0.4-0.4,0.9-0.4,1.3-0.1l0.1,0.1L32.6,21.3z"
	/>
</svg>
